<svg width="48" height="48" viewBox="0 0 48 48" xmlns="http://www.w3.org/2000/svg">
  <path
    d="M 40.61179,9.8196167 32.154759,14.468054 19.775853,14.360633 c -0.830968,-0.0073 -1.506401,0.65536 -1.513672,1.486328 l -0.0332,3.769531 h 8.914062 c 0.831001,0 1.5,0.669 1.5,1.5 v 4.115234 2.400391 l 3.167969,0.02734 3.335938,0.0293 c 0.830968,0.0073 1.506401,-0.657312 1.513672,-1.488281 l 0.07422,-8.59375 z M 28.64304,27.632117 19.660619,27.552037 c -0.830969,-0.0073 -1.495582,-0.680751 -1.488282,-1.511719 l 0.03711,-4.115234 0.01953,-2.308594 h -3.23828 -3.335938 c -0.831,0 -1.5,0.669 -1.5,1.5 v 8.595703 L 6.3461658,37.532505 14.762181,32.809849 H 27.14304 c 0.831,0 1.5,-0.669 1.5,-1.5 z"
    fill="#4e2bb7"
  />
</svg>
